<svg xmlns="http://www.w3.org/2000/svg" width="1024" height="1024" viewBox="0 0 1024 1024">
  <defs>
    <linearGradient id="bgGradient" x1="190" y1="132" x2="836" y2="884" gradientUnits="userSpaceOnUse">
      <stop offset="0" stop-color="#23243b"/>
      <stop offset="0.54" stop-color="#141728"/>
      <stop offset="1" stop-color="#0b0e18"/>
    </linearGradient>
    <radialGradient id="blueGlow" cx="0" cy="0" r="1" gradientUnits="userSpaceOnUse" gradientTransform="translate(326 702) rotate(41.4) scale(314 278)">
      <stop offset="0" stop-color="#2d7cff" stop-opacity="0.55"/>
      <stop offset="1" stop-color="#2d7cff" stop-opacity="0"/>
    </radialGradient>
    <radialGradient id="pinkGlow" cx="0" cy="0" r="1" gradientUnits="userSpaceOnUse" gradientTransform="translate(728 594) rotate(120.8) scale(278 252)">
      <stop offset="0" stop-color="#d24cff" stop-opacity="0.48"/>
      <stop offset="1" stop-color="#d24cff" stop-opacity="0"/>
    </radialGradient>
    <linearGradient id="chromeGradient" x1="224" y1="188" x2="800" y2="256" gradientUnits="userSpaceOnUse">
      <stop offset="0" stop-color="#304e8f"/>
      <stop offset="0.56" stop-color="#5f3fd4"/>
      <stop offset="1" stop-color="#d44992"/>
    </linearGradient>
    <linearGradient id="windowGradient" x1="248" y1="246" x2="776" y2="662" gradientUnits="userSpaceOnUse">
      <stop offset="0" stop-color="#171a2a"/>
      <stop offset="0.58" stop-color="#10121f"/>
      <stop offset="1" stop-color="#17111d"/>
    </linearGradient>
    <linearGradient id="shieldFrame" x1="338" y1="408" x2="688" y2="878" gradientUnits="userSpaceOnUse">
      <stop offset="0" stop-color="#f7f8fb"/>
      <stop offset="0.28" stop-color="#c2c9d7"/>
      <stop offset="0.62" stop-color="#7f8798"/>
      <stop offset="1" stop-color="#d1d7e4"/>
    </linearGradient>
    <linearGradient id="shieldCore" x1="366" y1="438" x2="650" y2="816" gradientUnits="userSpaceOnUse">
      <stop offset="0" stop-color="#4f4c59"/>
      <stop offset="0.5" stop-color="#1f2028"/>
      <stop offset="1" stop-color="#111318"/>
    </linearGradient>
    <linearGradient id="boltGradient" x1="610" y1="436" x2="469" y2="825" gradientUnits="userSpaceOnUse">
      <stop offset="0" stop-color="#fff7b0"/>
      <stop offset="0.34" stop-color="#ffd24b"/>
      <stop offset="0.68" stop-color="#ffb321"/>
      <stop offset="1" stop-color="#ff8a16"/>
    </linearGradient>
    <linearGradient id="lockGradient" x1="452" y1="544" x2="533" y2="724" gradientUnits="userSpaceOnUse">
      <stop offset="0" stop-color="#f8fcff"/>
      <stop offset="0.35" stop-color="#dce8f3"/>
      <stop offset="1" stop-color="#7d9bb0"/>
    </linearGradient>
    <filter id="softShadow" x="-20%" y="-20%" width="140%" height="140%">
      <feDropShadow dx="0" dy="18" stdDeviation="22" flood-color="#06070b" flood-opacity="0.5"/>
    </filter>
    <filter id="cardShadow" x="-24%" y="-24%" width="148%" height="148%">
      <feDropShadow dx="0" dy="36" stdDeviation="40" flood-color="#05070d" flood-opacity="0.55"/>
    </filter>
    <filter id="shieldShadow" x="-30%" y="-30%" width="160%" height="170%">
      <feDropShadow dx="0" dy="24" stdDeviation="30" flood-color="#05070d" flood-opacity="0.55"/>
    </filter>
  </defs>

  <rect x="92" y="92" width="840" height="840" rx="208" fill="url(#bgGradient)"/>
  <rect x="92" y="92" width="840" height="840" rx="208" fill="url(#blueGlow)"/>
  <rect x="92" y="92" width="840" height="840" rx="208" fill="url(#pinkGlow)"/>
  <rect x="92" y="92" width="840" height="840" rx="208" fill="none" stroke="#43475c" stroke-opacity="0.35" stroke-width="2"/>

  <g filter="url(#cardShadow)">
    <rect x="216" y="184" width="592" height="408" rx="54" fill="url(#windowGradient)" stroke="#7f7a95" stroke-opacity="0.7" stroke-width="3"/>
    <path d="M216 238C216 208.176 240.176 184 270 184H754C783.824 184 808 208.176 808 238V270H216V238Z" fill="url(#chromeGradient)"/>
    <path d="M216 270H808" stroke="#100e19" stroke-opacity="0.68" stroke-width="5"/>

    <circle cx="258" cy="227" r="22" fill="#ff6a34"/>
    <circle cx="312" cy="227" r="22" fill="#83ff1e"/>
    <circle cx="366" cy="227" r="22" fill="#43f44f"/>

    <path d="M302 346L372 379L302 412" fill="none" stroke="#40ff24" stroke-width="18" stroke-linecap="round" stroke-linejoin="round"/>
    <rect x="392" y="384" width="94" height="16" rx="8" fill="#40ff24"/>
  </g>

  <g filter="url(#shieldShadow)">
    <path d="M512 400L694 464V614C694 744 624 842 512 896C400 842 330 744 330 614V464L512 400Z" fill="url(#shieldFrame)"/>
    <path d="M512 432L668 486V612C668 726 609 808 512 856C415 808 356 726 356 612V486L512 432Z" fill="url(#shieldCore)"/>
    <path d="M578 432L664 463V615C664 721 609 803 520 851L578 432Z" fill="#ffffff" fill-opacity="0.08"/>
    <path d="M574 416H640L590 540H657L470 826L534 636H464L574 416Z" fill="url(#boltGradient)" stroke="#6a3a00" stroke-opacity="0.28" stroke-width="6" stroke-linejoin="round"/>

    <g filter="url(#softShadow)">
      <path d="M512 532C468.922 532 434 566.922 434 610V726H590V610C590 566.922 555.078 532 512 532ZM468 610C468 585.699 487.699 566 512 566C536.301 566 556 585.699 556 610V628H468V610Z" fill="url(#lockGradient)"/>
      <path d="M502 646C484.879 646 471 659.879 471 677C471 689.512 478.414 700.294 489.086 705.21V742H535.914V705.21C546.586 700.294 554 689.512 554 677C554 659.879 540.121 646 523 646H502Z" fill="#0a0c12" fill-opacity="0.82"/>
    </g>
  </g>
</svg>
